<svg xmlns="http://www.w3.org/2000/svg" width="28" height="28" viewBox="0 0 28 28">
    <g fill="none" fill-rule="evenodd">
        <path fill="#2D58A7" d="M13.624 27.446C7.704 27.446 0 28.053 0 15.873v-4.295C0-.602 7.705.005 13.624.005h.269c5.92 0 13.624-.607 13.624 11.573v4.295c0 12.18-7.705 11.573-13.624 11.573h-.269z"/>
        <g fill="#FEFEFE">
            <path d="M4.375 2.993c0-.537-.146-.974-.437-1.312-.296-.342-.668-.512-1.117-.512-.476 0-.862.165-1.157.495-.296.33-.443.763-.443 1.3 0 .526.147.96.443 1.302.291.333.675.5 1.151.5.45 0 .82-.169 1.111-.506.3-.338.449-.76.449-1.267zM1.295 7.9H0V.155h1.295v.61C1.805.256 2.385 0 3.034 0c.771 0 1.406.284 1.905.852.507.564.76 1.276.76 2.136 0 .84-.251 1.54-.754 2.1-.499.557-1.128.835-1.888.835-.657 0-1.244-.263-1.762-.788V7.9zM7.984 2.942c0 .537.144.974.432 1.312.295.342.667.512 1.116.512.48 0 .868-.165 1.163-.495.296-.341.443-.775.443-1.3 0-.526-.147-.96-.443-1.302-.295-.333-.68-.5-1.151-.5-.445 0-.817.168-1.117.506-.295.342-.443.764-.443 1.267zM11.058.155h1.3v5.607h-1.3v-.587c-.534.499-1.107.748-1.721.748-.775 0-1.416-.28-1.923-.84-.503-.572-.754-1.286-.754-2.141 0-.84.251-1.541.754-2.101S8.546 0 9.302 0c.652 0 1.238.269 1.756.806v-.65zM15.53 5.372L13.128.155 14.498.155 16.126 4.028 17.773.155 19.154.155 15.88 7.9 14.4 7.9z" transform="translate(4.52 11.672)"/>
        </g>
        <g fill="#6F9ED3">
            <path d="M1.044 0c.57 0 1.026.188 1.026.69v.265h-.737V.767c0-.11-.038-.268-.275-.268-.237 0-.273.179-.273.259 0 .08.015.224.264.356l.397.213c.584.317.697.58.697.821v.188c0 .472-.347.834-.91.834H.934C.452 3.17 0 2.868 0 2.403v-.318h.794v.235c0 .174.09.32.293.32.204 0 .31-.122.31-.291 0-.17-.075-.273-.414-.468-.233-.135-.337-.19-.395-.225C.287 1.47.022 1.334.022.835.022.336.31 0 1.044 0M10.703 0c.57 0 1.027.188 1.027.69v.265h-.737V.767c0-.11-.038-.268-.275-.268-.237 0-.273.179-.273.259 0 .08.014.224.264.356l.397.213c.584.317.697.58.697.821v.188c0 .472-.348.834-.91.834h-.299c-.482 0-.934-.302-.934-.767v-.318h.794v.235c0 .174.09.32.293.32.204 0 .31-.122.31-.291 0-.17-.075-.273-.414-.468-.233-.135-.338-.19-.395-.225-.301-.186-.566-.322-.566-.821 0-.499.287-.835 1.021-.835M2.63 3.059L3.168.084 4.491.084 5.052 3.059 4.245 3.059 3.841.344 3.437 3.059zM5.697.084L6.908.084 7.284 2.395 7.651.084 8.871.084 8.936 3.059 8.184 3.059 8.165.344 7.665 3.059 6.908 3.059 6.398.344 6.379 3.059 5.632 3.059zM13.228.084v2.163c0 .218.079.362.255.362.177 0 .325-.051.325-.353V.084h.747v2.232c0 .576-.418.83-1.02.83-.604 0-1.063-.222-1.063-.844V.084h.756zM15.381 3.059L15.381.084 16.49.084 17.177 2.442 17.139.084 17.877.084 17.877 3.059 16.824 3.059 16.079.599 16.108 3.059zM19.71.014c.504 0 1.057.165 1.057.849v.178h-.755v-.17c0-.187-.112-.33-.301-.33-.19 0-.312.1-.312.396V2.24c0 .237.118.346.288.346.17 0 .327-.09.327-.266v-.49h-.3v-.434h1.053v.833c0 .596-.441.89-1.008.89s-1.102-.174-1.102-.863V.943c0-.536.245-.93 1.054-.93" transform="translate(3.43 6.118)"/>
        </g>
    </g>
</svg>
